<?xml version="1.0" encoding="iso-8859-1"?>
<!-- Generator: Adobe Illustrator 18.0.0, SVG Export Plug-In . SVG Version: 6.00 Build 0)  -->
<!DOCTYPE svg PUBLIC "-//W3C//DTD SVG 1.1//EN" "http://www.w3.org/Graphics/SVG/1.1/DTD/svg11.dtd">
<svg version="1.1" id="Capa_1" xmlns="http://www.w3.org/2000/svg" xmlns:xlink="http://www.w3.org/1999/xlink" x="0px" y="0px"
	 viewBox="0 0 297.5 297.5" style="enable-background:new 0 0 297.5 297.5;" xml:space="preserve">
<g>
	<g id="XMLID_29_">
		<g>
			<path style="fill:#BDC3C7;" d="M226.39,132.47c0.17,0.17,0.27,0.41,0.27,0.65c0,0.51-0.41,0.92-0.92,0.92h-94.52
				c-12.84,0-19.57-3.31-19.57-6.57c0-0.11,0-0.22,0-0.33c-0.43-8.26,2.57-16.68,5.28-22.47l2.84,11.36
				c0.72,2.87,3.3,4.88,6.25,4.88h21.06l2.47,5.17c1.07,2.24,3.33,3.67,5.81,3.67h46.82c2.77,0,5.23-1.77,6.11-4.41
				c0.49-1.48,0.4-3.05-0.16-4.43h6.32c0.24,0,0.47,0.1,0.64,0.27L226.39,132.47z"/>
			<polygon style="fill:#BDC3C7;" points="182.8,116.87 159.43,116.87 146.49,89.75 			"/>
			<path style="fill:#356272;" d="M277.44,125.96v110.97H52.77v-45.57h206.09c5.47,0,9.91-4.44,9.91-9.91v-55.49H277.44z"/>
			<path style="fill:#3498DB;" d="M248.95,60.57v110.97H20.07V60.57H248.95z M239.54,133.12c0-3.69-1.44-7.15-4.04-9.76l-11.3-11.29
				c-2.6-2.61-6.07-4.04-9.75-4.04h-21.97l-43.01-32.14c-1.12-0.83-2.47-1.28-3.86-1.28h-10.4c-2.21,0-4.27,1.13-5.45,3
				c-1.18,1.87-1.32,4.22-0.36,6.21l11.54,24.21h-9.89l-3.98-15.93c-0.72-2.87-3.3-4.88-6.25-4.88h-5.2c-2.15,0-4.15,1.07-5.35,2.85
				c-0.51,0.76-12.4,18.69-11.5,37.59c0.07,4.76,2.74,19.26,32.45,19.26h94.52C233.35,146.92,239.54,140.73,239.54,133.12z
				 M92.4,116.05c0-3.55-2.88-6.44-6.44-6.44h-32.7c-3.55,0-6.44,2.89-6.44,6.44c0,3.56,2.89,6.44,6.44,6.44h32.7
				C89.52,122.49,92.4,119.61,92.4,116.05z M92.4,132.4c0-3.56-2.88-6.44-6.44-6.44H36.91c-3.55,0-6.44,2.88-6.44,6.44
				c0,3.56,2.89,6.44,6.44,6.44h49.05C89.52,138.84,92.4,135.96,92.4,132.4z"/>
			<path d="M297.25,116.05v130.79c0,5.47-4.43,9.91-9.91,9.91H42.86c-5.47,0-9.91-4.44-9.91-9.91v-55.48H10.16
				c-5.47,0-9.91-4.44-9.91-9.91V50.66c0-5.47,4.44-9.91,9.91-9.91h248.7c5.47,0,9.91,4.44,9.91,9.91v55.48h18.57
				C292.82,106.14,297.25,110.58,297.25,116.05z M277.44,236.93V125.96h-8.67v55.49c0,5.47-4.44,9.91-9.91,9.91H52.77v45.57H277.44z
				 M248.95,171.54V60.57H20.07v110.97H248.95z"/>
			<path d="M235.5,123.36c2.6,2.61,4.04,6.07,4.04,9.76c0,7.61-6.19,13.8-13.8,13.8h-94.52c-29.71,0-32.38-14.5-32.45-19.26
				c-0.9-18.9,10.99-36.83,11.5-37.59c1.2-1.78,3.2-2.85,5.35-2.85h5.2c2.95,0,5.53,2.01,6.25,4.88l3.98,15.93h9.89L129.4,83.82
				c-0.96-1.99-0.82-4.34,0.36-6.21c1.18-1.87,3.24-3,5.45-3h10.4c1.39,0,2.74,0.45,3.86,1.28l43.01,32.14h21.97
				c3.68,0,7.15,1.43,9.75,4.04L235.5,123.36z M226.66,133.12c0-0.24-0.1-0.48-0.27-0.65l-11.3-11.29c-0.17-0.17-0.4-0.27-0.64-0.27
				h-6.32c0.56,1.38,0.65,2.95,0.16,4.43c-0.88,2.64-3.34,4.41-6.11,4.41h-46.82c-2.48,0-4.74-1.43-5.81-3.67l-2.47-5.17h-21.06
				c-2.95,0-5.53-2.01-6.25-4.88l-2.84-11.36c-2.71,5.79-5.71,14.21-5.28,22.47c0,0.11,0,0.22,0,0.33c0,3.26,6.73,6.57,19.57,6.57
				h94.52C226.25,134.04,226.66,133.63,226.66,133.12z M159.43,116.87h23.37l-36.31-27.12L159.43,116.87z"/>
			<path d="M85.96,109.61c3.56,0,6.44,2.89,6.44,6.44c0,3.56-2.88,6.44-6.44,6.44h-32.7c-3.55,0-6.44-2.88-6.44-6.44
				c0-3.55,2.89-6.44,6.44-6.44H85.96z"/>
			<path d="M85.96,125.96c3.56,0,6.44,2.88,6.44,6.44c0,3.56-2.88,6.44-6.44,6.44H36.91c-3.55,0-6.44-2.88-6.44-6.44
				c0-3.56,2.89-6.44,6.44-6.44H85.96z"/>
		</g>
		<g>
		</g>
	</g>
</g>
<g>
</g>
<g>
</g>
<g>
</g>
<g>
</g>
<g>
</g>
<g>
</g>
<g>
</g>
<g>
</g>
<g>
</g>
<g>
</g>
<g>
</g>
<g>
</g>
<g>
</g>
<g>
</g>
<g>
</g>
</svg>
